# xmcd CD database file
#
# Track frame offsets:
#	150
#	1645
#	12760
#	28627
#	47061
#	63984
#	85310
#	89496
#	135445
#	162130
#	173799
#	184575
#	190487
#	208290
#	225296
#	244035
#	263057
#
# Disc length: 3662 seconds
#
# Revision: 0
# Processed by: cddbd v1.5.2PL0 Copyright (c) Steve Scherf et al.
# Submitted via: CDex 1.81
#
DISCID=d00e4c11
DTITLE=Various Artist - Revolutionary Jazz - Forradalmi Jazz
DYEAR=2016
DGENRE=Jazz
TTITLE0=Conover identifies program number and date
TTITLE1=Theme (Take the 'A' Train) and introduction
TTITLE2=Moll Blues (Zagon-Radics Quartet)
TTITLE3=Commentary (Scott, Jones, Mulligan)
TTITLE4=Stalintown Blues (Gabor Szabo Quintet)
TTITLE5=Commentary
TTITLE6=Conover
TTITLE7=Yesterdays (Ivan Zagon Trio)
TTITLE8=Commentary (Incl. Billy Taylor)
TTITLE9=Sweet and Lovely (Attila Garai Trio)
TTITLE10=Commentary (Billy Taylor)
TTITLE11=Conover
TTITLE12=Bernie's Tune (Attila Garai Sextet)
TTITLE13=Commentary
TTITLE14=Canon (Attila Karai Sextet)
TTITLE15=Commentary
TTITLE16=Conover, closing theme (Take the 'A' Train)
EXTD=YEAR: 2016
EXTT0=
EXTT1=
EXTT2=
EXTT3=
EXTT4=
EXTT5=
EXTT6=
EXTT7=
EXTT8=
EXTT9=
EXTT10=
EXTT11=
EXTT12=
EXTT13=
EXTT14=
EXTT15=
EXTT16=
PLAYORDER=
